<svg width="373" height="264" viewBox="0 0 373 264" fill="none" xmlns="http://www.w3.org/2000/svg">
<g clip-path="url(#clip0_509_732)">
<path fill-rule="evenodd" clip-rule="evenodd" d="M60.3487 0.357617C57.7807 1.06562 56.4377 2.37262 54.8787 5.68362C54.6187 6.23662 53.6957 8.17462 52.8277 9.99162C51.9607 11.8076 50.7717 14.3266 50.1877 15.5906C49.6027 16.8536 48.6847 18.7996 48.1477 19.9136C47.6107 21.0286 47.1717 22.0246 47.1717 22.1266C47.1717 22.2296 46.8107 22.9326 46.3687 23.6896C45.9267 24.4466 45.2647 25.7776 44.8967 26.6456C44.3077 28.0356 42.0177 32.8906 39.0047 39.1366C38.4707 40.2426 37.2947 42.6976 36.3917 44.5926C33.8517 49.9176 31.4737 54.8976 29.7397 58.5196C28.8707 60.3356 27.6687 62.8556 27.0697 64.1186C26.4707 65.3826 25.1097 68.2256 24.0457 70.4366C22.9807 72.6476 21.5637 75.6196 20.8967 77.0406C20.2307 78.4616 18.9707 81.1106 18.0987 82.9276C17.2267 84.7436 15.9307 87.4566 15.2187 88.9576C14.5067 90.4576 13.0597 93.4946 12.0027 95.7056C10.9457 97.9166 9.58967 100.76 8.98767 102.023C8.38567 103.287 7.12267 105.936 6.17967 107.91C5.23667 109.884 4.10967 112.274 3.67467 113.222C3.23967 114.17 2.33267 116.062 1.65867 117.428C-1.49033 123.813 -0.158331 128.264 5.67867 130.86C5.99467 131 8.44967 132.175 11.1347 133.471C13.8197 134.767 16.7917 136.185 17.7387 136.623C18.6867 137.06 21.3867 138.35 23.7387 139.489C30.0017 142.52 31.8887 142.924 34.9887 141.9C37.7207 140.997 38.2717 140.184 43.1327 129.877C43.9517 128.139 45.2077 125.49 45.9237 123.99C46.6387 122.49 47.5897 120.487 48.0367 119.539C48.4837 118.592 49.6827 116.072 50.7007 113.94C52.5737 110.018 53.6487 107.745 55.7247 103.315C56.3537 101.973 57.6417 99.2586 58.5847 97.2846C59.5287 95.3106 60.7557 92.7266 61.3117 91.5416C61.8677 90.3576 63.1897 87.5786 64.2497 85.3676C66.8157 80.0196 68.4067 76.6636 68.7297 75.9236C68.8747 75.5906 69.1207 75.1236 69.2757 74.8866C69.4307 74.6506 69.9567 73.5516 70.4447 72.4466C70.9337 71.3406 72.0217 69.0146 72.8627 67.2776C73.7037 65.5406 74.9407 62.9556 75.6127 61.5346C76.2837 60.1136 78.0417 56.4476 79.5187 53.3886C80.9957 50.3306 82.2037 47.7796 82.2037 47.7206C82.2037 47.6616 83.3787 45.1886 84.8137 42.2266C86.2497 39.2636 87.7877 36.0646 88.2327 35.1166C88.6767 34.1696 90.0397 31.3266 91.2607 28.7996C94.7447 21.5866 94.6447 21.8616 94.6497 19.4566C94.6547 16.8576 93.7127 14.8046 91.8317 13.3186C90.7147 12.4356 89.8267 11.9746 82.3477 8.40262C77.5637 6.11762 70.9627 2.93962 68.5647 1.76662C65.0377 0.0406179 62.8547 -0.333382 60.3487 0.357617ZM307.961 0.234617C307.282 0.375617 305.408 1.12762 303.798 1.90762C302.187 2.68662 299.448 4.00062 297.71 4.82762C294.855 6.18562 292.719 7.21062 283.726 11.5406C276.324 15.1046 276.038 18.1886 281.99 30.2356C282.458 31.1826 283.235 32.7976 283.717 33.8246C284.199 34.8516 285.897 38.3786 287.491 41.6636C289.084 44.9486 290.388 47.6946 290.388 47.7666C290.388 47.8376 291.37 49.9306 292.569 52.4186C293.769 54.9056 295.145 57.7796 295.626 58.8066C296.107 59.8336 297.71 63.1706 299.187 66.2226C300.665 69.2746 301.874 71.8226 301.874 71.8836C301.874 71.9456 303.102 74.5146 304.602 77.5926C306.102 80.6706 307.33 83.2506 307.33 83.3256C307.33 83.4016 308.539 85.9586 310.017 89.0096C311.495 92.0606 313.035 95.2676 313.439 96.1366C313.843 97.0046 315.218 99.8916 316.495 102.551C317.771 105.211 318.816 107.439 318.816 107.503C318.816 107.566 319.798 109.655 320.999 112.143C322.199 114.632 323.604 117.572 324.121 118.678C324.638 119.783 325.71 122.045 326.503 123.703C327.295 125.361 328.524 127.946 329.233 129.446C334.322 140.214 334.695 140.78 337.37 141.781C340.578 142.981 342.388 142.602 349.254 139.29C351.702 138.109 354.868 136.59 356.289 135.914C366.657 130.981 368.985 129.747 370.175 128.557C373.256 125.477 373.467 122.735 371.013 117.673C370.133 115.857 368.943 113.358 368.37 112.12C367.796 110.883 366.505 108.169 365.499 106.09C364.494 104.011 363.284 101.47 362.809 100.444C362.334 99.4166 360.983 96.5736 359.807 94.1256C358.631 91.6786 357.181 88.6416 356.586 87.3776C355.991 86.1146 354.729 83.4656 353.78 81.4916C350.169 73.9736 348.305 70.0806 347.386 68.1386C346.862 67.0336 345.259 63.6916 343.824 60.7136C342.388 57.7356 341.214 55.2476 341.214 55.1866C341.214 55.1256 340.197 52.9756 338.955 50.4086C337.713 47.8416 336.339 44.9656 335.901 44.0186C335.464 43.0706 333.896 39.8096 332.417 36.7716C330.938 33.7326 329.728 31.1886 329.728 31.1166C329.728 31.0446 328.616 28.6846 327.258 25.8726C325.9 23.0606 324.399 19.9196 323.922 18.8926C323.445 17.8666 322.182 15.2176 321.115 13.0066C320.048 10.7956 318.874 8.27562 318.506 7.40662C315.953 1.38462 312.795 -0.763383 307.961 0.234617ZM191.321 26.8396C188.833 27.0866 182.256 28.0716 180.122 28.5176C178.938 28.7646 177.375 29.0796 176.649 29.2176C172.753 29.9586 163.125 33.8116 158.28 36.5686L155.534 38.1316H131.692C108.452 38.1316 107.837 38.1456 107.345 38.6896C106.488 39.6366 99.4147 54.0216 99.6767 54.2836C99.8117 54.4186 106.126 54.5196 113.708 54.5076C129.151 54.4836 128.833 54.4426 127.746 56.3236C127.459 56.8206 126.906 57.8086 126.518 58.5196C126.13 59.2306 125.546 60.2636 125.22 60.8166C120.803 68.3136 119.316 72.0016 119.085 76.0356C118.723 82.3666 117.135 97.0786 116.693 98.1976C116.548 98.5636 115.95 100.35 115.364 102.167C114.779 103.983 114.202 105.598 114.082 105.756C111.438 109.252 110.367 115.244 111.849 118.253C115.825 126.324 127.599 128.874 141.214 124.613C148.851 122.223 158.224 113.12 162.722 103.724C165.045 98.8726 165.609 97.0316 166.632 90.9676C167.128 88.0246 168.165 86.2716 171.221 83.2056C177.679 76.7286 185.213 75.4396 195.916 78.9816L198.644 79.8836L203.795 85.0666C206.628 87.9176 209.322 90.5306 209.781 90.8746C210.24 91.2186 211.211 92.0586 211.937 92.7416C212.664 93.4236 214.247 94.8226 215.455 95.8486C218.576 98.5016 221.385 100.937 223.062 102.445C223.858 103.161 225.796 104.861 227.37 106.223C228.943 107.586 232.039 110.282 234.25 112.216C236.461 114.15 239.046 116.405 239.993 117.229C240.941 118.052 242.792 119.684 244.106 120.855C245.421 122.027 247.052 123.437 247.731 123.99C248.41 124.543 250.128 126.029 251.55 127.292C252.972 128.556 254.589 129.977 255.143 130.451C255.697 130.925 258.194 133.121 260.693 135.332C263.191 137.544 266.792 140.701 268.694 142.348C270.597 143.996 272.219 145.431 272.298 145.537C272.377 145.643 273.424 146.557 274.626 147.567C276.925 149.499 283.538 155.292 283.784 155.588C283.863 155.684 284.84 156.528 285.956 157.464C295.99 165.883 303.664 172.803 304.625 174.298C311.07 184.32 298.792 197.965 287.308 193.544C285.943 193.019 284.97 192.386 280.498 189.117C279.699 188.533 277.947 187.299 276.605 186.373C275.262 185.448 272.678 183.609 270.862 182.287C267.72 179.999 265.138 178.147 259.663 174.252C258.321 173.298 256.124 171.732 254.781 170.774C253.439 169.816 251.888 168.724 251.336 168.349C250.783 167.973 248.95 166.658 247.262 165.426C245.574 164.194 243.914 162.992 243.572 162.755C243.23 162.518 242.027 161.635 240.898 160.792C239.768 159.95 237.999 158.71 236.966 158.037C235.932 157.364 233.971 155.986 232.606 154.975C231.241 153.963 228.756 152.167 227.082 150.982C221.712 147.182 220.517 146.324 217.883 144.376C212.062 140.072 207.452 139.891 204.924 143.87C202.704 147.362 204.648 151.224 210.887 155.72C213.079 157.299 216.211 159.561 217.847 160.745C219.483 161.93 221.749 163.545 222.883 164.335C224.016 165.124 226.326 166.769 228.017 167.99C232.46 171.197 236.596 174.166 240.855 177.204C242.908 178.669 245.92 180.83 247.547 182.007C249.175 183.185 251.954 185.157 253.721 186.39C255.489 187.623 257.258 188.92 257.653 189.272C258.048 189.624 259.275 190.532 260.381 191.288C261.486 192.045 263.166 193.23 264.114 193.923C265.061 194.615 266.542 195.671 267.405 196.269C269.133 197.468 272.404 199.833 273.303 200.532C273.619 200.778 274.41 201.39 275.061 201.893C282.399 207.559 277.759 220.472 268.385 220.472C264.43 220.472 262.996 219.869 257.509 215.898C255.142 214.184 248.837 209.709 247.316 208.661C246.447 208.064 243.896 206.245 241.647 204.619C239.398 202.994 236.103 200.639 234.325 199.386C232.547 198.132 230.316 196.537 229.369 195.841C227.37 194.373 218.224 187.826 217.165 187.106C216.77 186.837 215.542 185.968 214.437 185.174C213.331 184.38 211.458 183.057 210.273 182.234C209.089 181.411 207.15 180.022 205.966 179.148C199.03 174.028 195.891 173.126 192.574 175.299C188.416 178.023 189.503 183.463 194.961 187.255C195.911 187.915 197.748 189.231 199.042 190.178C204.24 193.984 208.683 197.225 212.821 200.228C215.214 201.966 218.847 204.615 220.892 206.115C225.901 209.789 228.996 212.026 231.235 213.593C235.474 216.559 236.274 217.141 236.547 217.463C236.705 217.649 237.416 218.183 238.127 218.65C244.904 223.108 246.67 224.673 247.961 227.364C251.037 233.774 245.28 242.87 238.147 242.87C234.803 242.87 234.052 242.498 226.21 236.958C224.315 235.62 221.731 233.81 220.467 232.937C219.204 232.064 217.508 230.873 216.699 230.29C215.162 229.183 213.225 227.831 209.843 225.506C208.737 224.746 207.38 223.772 206.827 223.342C206.275 222.911 204.466 221.635 202.807 220.504C201.149 219.374 198.629 217.616 197.208 216.598C195.787 215.58 193.784 214.156 192.757 213.433C191.731 212.711 189.986 211.474 188.881 210.686C183.149 206.597 182.147 206.02 180.548 205.887C176.229 205.529 172.668 210.307 174.343 214.213C175.051 215.865 175.114 215.919 183.568 222.18C188.614 225.916 190.199 227.104 192.14 228.604C192.716 229.05 196.483 231.871 200.51 234.874C204.537 237.877 208.123 240.654 208.479 241.044C211.003 243.816 205.442 250.512 200.078 251.157C198.072 251.399 193.778 251.105 193.251 250.691C193.058 250.539 192.547 250.331 192.114 250.227C191.08 249.98 186.44 247.162 186.05 246.544C185.821 246.182 185.903 245.682 186.38 244.532C190.668 234.188 175.979 220.844 165.099 225.2C162.723 226.151 162.652 226.097 163.267 223.79C164.718 218.344 162.819 212.154 158.228 207.363C151.567 200.41 141.668 198.358 135.609 202.673C134.11 203.74 133.719 202.963 134.649 200.766C134.985 199.971 135.113 198.837 135.099 196.783C135.001 182.896 118.993 172.306 107.043 178.222C105.602 178.936 105.398 178.501 106.432 176.917C109.635 172.008 109.306 164.239 105.625 157.905C100.947 149.853 89.1207 146.142 80.8567 150.133C79.5637 150.758 78.3147 151.269 78.0827 151.269C77.7007 151.269 73.1687 146.377 71.2257 143.866C70.7937 143.309 69.9467 142.323 69.3437 141.677C68.7397 141.03 67.6717 139.78 66.9697 138.899C63.3577 134.367 61.1577 131.743 60.9677 131.743C60.3847 131.743 54.0637 143.675 54.0637 144.776C54.0637 145.106 56.9017 149.034 57.5097 149.546C57.6037 149.625 58.5347 150.788 59.5797 152.131C60.6247 153.473 62.2977 155.495 63.2987 156.624C67.1087 160.921 67.8467 161.872 67.8467 162.491C67.8467 163.08 65.4247 166.295 62.1037 170.117C54.3147 179.079 53.3707 180.92 53.3637 187.163C53.3457 202.641 70.8627 212.441 83.4287 203.983C85.4317 202.635 85.4787 202.665 84.7547 204.83C84.0827 206.838 83.9477 211.719 84.5147 213.494C88.7387 226.714 103.467 233.783 113.285 227.303C115.433 225.885 115.652 225.9 115.335 227.436C113.34 237.097 119.002 246.393 129.153 250.121C136.068 252.66 142.345 250.888 146.958 245.096C148.163 243.581 148.287 243.717 148.071 246.309C147.457 253.673 153.935 262.284 161.178 263.733C161.655 263.828 162.114 264.019 162.199 264.156C162.519 264.675 167.555 264.435 169.159 263.826C171.326 263.002 171.78 262.651 174.092 260.011C178.289 255.218 177.501 255.396 181.845 258.264C196.979 268.253 211.463 265.717 219.741 251.628C220.113 250.997 220.674 250.191 220.99 249.838L221.563 249.197L222.562 249.814C224.462 250.988 230.399 253.782 230.994 253.782C231.195 253.782 231.881 253.96 232.518 254.178C243.8 258.031 254.889 252.455 260.143 240.286C260.875 238.59 261.198 237.746 261.734 236.122C262.537 233.693 262.553 233.682 265.226 233.679C276.941 233.667 284.878 229.491 288.949 221.198C289.74 219.585 290.388 217.913 290.388 217.483C290.388 217.054 290.511 216.473 290.66 216.193C290.915 215.717 291.355 213.014 291.796 209.217C292.035 207.157 291.515 207.432 296.8 206.567C299.3 206.158 301.585 205.695 301.878 205.538C302.171 205.382 302.661 205.254 302.968 205.254C305.807 205.254 311.891 200.504 314.922 195.921C321.555 185.891 320.849 173.779 313.029 163.437C311.039 160.805 311.026 160.616 312.581 157.284C313.13 156.108 314.036 154.112 314.595 152.849C315.859 149.993 317.242 146.971 318.135 145.114C319.081 143.145 319.027 142.79 317.202 138.985C314.934 134.256 313.018 130.216 311.929 127.867C311.416 126.761 310.184 124.177 309.189 122.124C308.195 120.07 306.74 117.034 305.957 115.376C303.106 109.341 301.773 106.542 299.938 102.741C298.908 100.609 297.424 97.5076 296.64 95.8486C295.856 94.1906 294.593 91.5416 293.834 89.9626C293.074 88.3826 291.718 85.5406 290.821 83.6446C289.923 81.7496 288.374 78.5196 287.379 76.4666C286.383 74.4136 284.796 71.1186 283.853 69.1436C281.232 63.6616 279.35 59.7426 276.564 53.9656C275.165 51.0656 274.021 48.6386 274.021 48.5716C274.021 48.2756 270.155 40.4946 269.655 39.7826C269.119 39.0206 269.011 38.9936 266.496 38.9936C265.064 38.9936 262.779 38.8656 261.418 38.7086C260.058 38.5516 257.718 38.2846 256.217 38.1156C251.154 37.5426 249.762 37.3346 248.033 36.8906C247.086 36.6476 245.212 36.1666 243.87 35.8206C241.278 35.1526 239.089 34.6156 236.978 34.1286C234.786 33.6216 228.342 31.9096 227.215 31.5336C224.607 30.6636 220.511 29.4766 219.175 29.2036C218.306 29.0266 216.691 28.6976 215.586 28.4726C208.96 27.1236 196.738 26.3016 191.321 26.8396Z" fill="currentColor"/>
</g>
<defs>
<clipPath id="clip0_509_732">
<rect width="373" height="264" fill="white"/>
</clipPath>
</defs>
</svg>
