<svg width="616" height="629" viewBox="0 0 616 629" fill="none" xmlns="http://www.w3.org/2000/svg">
<path d="M336.756 16.6483L316.659 28.2546V159.367C313.84 160.034 310.911 160.405 307.982 160.405C305.052 160.405 302.123 160.034 299.305 159.367V28.2546L279.209 16.6483L250.398 0.000671387L106.455 83.1319L86.3578 94.7383V151.173L153.248 189.809L153.36 189.884L175.237 202.49L177.201 203.638L199.227 216.321V216.394L201.488 217.729V260.926L164.001 282.582L145.276 271.754L116.725 255.29L87.2112 238.197L87.0245 238.124L48.8708 216.098L20.0982 232.709L0 244.316V433.711L28.8099 450.359L48.9081 461.928L69.005 450.359L162.481 396.372C166.485 400.636 169.489 405.791 171.158 411.426L77.6447 465.413L57.5852 477.019V533.454L201.528 616.585L221.625 628.154L241.723 616.548L270.496 599.936V466.97L307.983 445.316L345.47 466.97V556.072L345.433 599.936L374.207 616.511L394.34 628.154L414.436 616.548L432.458 606.128L432.643 606.055L519.556 555.885L558.378 533.454V477.019L538.283 465.413L444.805 411.426C446.474 405.791 449.477 400.636 453.519 396.372L546.958 450.359L567.055 461.965L587.152 450.359L615.962 433.711V244.316L595.865 232.709L567.055 216.098L553.188 224.107L500.126 254.734L499.979 254.809L470.687 271.754L451.923 282.582L414.436 260.926V217.655L529.605 151.173V94.701L509.471 83.1319L491.561 72.7868L491.488 72.7122L433.533 39.2677L433.384 39.157L365.567 0.000671387L336.756 16.6483Z" fill="url(#paint0_linear_504_712)"/>
<defs>
<linearGradient id="paint0_linear_504_712" x1="307.989" y1="628.144" x2="307.989" y2="-0.00198279" gradientUnits="userSpaceOnUse">
<stop stop-color="#670000"/>
<stop offset="0.23442" stop-color="#810900"/>
<stop offset="0.614583" stop-color="#A71F15"/>
<stop offset="0.99758" stop-color="#DA2619"/>
<stop offset="0.99768" stop-color="#DA2619"/>
</linearGradient>
</defs>
</svg>
